:SAMPLES-PER-SECOND 30
:FULLY-SPECIFIED
:DEGREES
199
root  0.718594 18.1461 -22.0865 55.397 2.59989 -14.8642
RightUpLeg  -67.4365 16.2211 27.2271
RightLeg  117.976 20.3776 -8.30071
RightFoot  9.40883 1.32396 -6.8312
RightToes  5.82077e-011 -3.18055e-015 -2.98177e-016
Spine  34.9667 3.25728 10.4712
Spine1  -8.16001 7.04014 0.602666
HEad  -27.8576 -4.59261 -4.94702
LeftShoulder1  -3.88251e-019 9.70628e-020 -3.87848e-018
LeftArm  -6.94123 -12.1638 -67.6829
LeftForeArm  12.0029 -11.4791 -5.46352
LeftHand  -12.1537 -11.1981 74.8971
RightShoulder  6.16229 10.5331 28.4511
RightArm  14.4456 -5.91592 41.5161
RightForeArm  11.1718 42.114 -25.163
RightHand  -11.1361 11.4417 -67.5412
LeftUpLeg  -24.8405 11.349 9.83976
LeftLeg  81.388 -12.6776 9.65138
LeftFoot  -13.635 -0.139611 -22.2213
LeftToes  1.39127e-010 -3.60802e-011 -7.31315e-011
200
root  0.372416 18.5693 -21.692 53.7718 4.85029 -11.9871
RightUpLeg  -64.9677 13.9719 26.3314
RightLeg  116.852 18.6556 -5.6126
RightFoot  9.23375 0.751028 -3.99153
RightToes  5.82077e-011 -3.18055e-015 -2.98177e-016
Spine  38.1639 1.00736 11.2323
Spine1  -9.78126 5.15819 0.940503
HEad  -27.9343 -4.30311 -4.25729
LeftShoulder1  -3.88251e-019 9.70628e-020 -3.87848e-018
LeftArm  -6.58293 -11.8026 -66.7596
LeftForeArm  12.1935 -11.1203 -5.83357
LeftHand  -12.2717 -11.178 75.5053
RightShoulder  5.70318 10.2499 26.5343
RightArm  5.68218 -0.264249 47.9068
RightForeArm  11.9827 39.982 -23.3965
RightHand  -10.3011 10.8063 -65.4162
LeftUpLeg  -26.6077 7.92319 11.1518
LeftLeg  84.6337 -13.2291 7.67672
LeftFoot  -14.8915 -0.348287 -19.1244
LeftToes  1.39127e-010 -3.60802e-011 -7.31315e-011
201
root  -0.0250832 18.9218 -21.3472 52.4516 6.33125 -7.36924
RightUpLeg  -63.0402 10.6701 24.0934
RightLeg  116.347 17.3926 -3.38355
RightFoot  8.22897 0.568411 -3.2099
RightToes  5.82077e-011 -3.18055e-015 -2.98177e-016
Spine  40.9935 -0.471699 9.70972
Spine1  -11.229 3.14734 2.99402
HEad  -27.7494 -4.44447 -3.50136
LeftShoulder1  -3.88251e-019 9.70628e-020 -3.87848e-018
LeftArm  -6.55414 -11.1833 -67.1472
LeftForeArm  12.6572 -11.1168 -5.48955
LeftHand  -12.3385 -11.2731 75.4816
RightShoulder  5.34979 9.94228 25.1707
RightArm  -0.115628 7.90027 53.3627
RightForeArm  12.4108 33.4705 -18.7865
RightHand  -9.00189 9.85735 -61.5658
LeftUpLeg  -29.4996 4.33332 10.4808
LeftLeg  88.8005 -13.7302 7.30315
LeftFoot  -17.4155 -0.80726 -19.9612
LeftToes  1.39127e-010 -3.60802e-011 -7.31315e-011
202
root  -0.533152 19.1398 -21.0604 51.7524 5.99869 -2.34326
RightUpLeg  -61.8367 7.97539 21.1329
RightLeg  116.063 17.2184 -3.07745
RightFoot  7.17263 0.576169 -3.39508
RightToes  5.82077e-011 -3.18055e-015 -2.98177e-016
Spine  42.9367 -0.580317 6.09337
Spine1  -11.6273 1.59307 5.1788
HEad  -28.0603 -4.91164 -1.89548
LeftShoulder1  -3.88251e-019 9.70628e-020 -3.87848e-018
LeftArm  -5.97057 -11.494 -67.5076
LeftForeArm  13.0102 -10.974 -5.45921
LeftHand  -12.5612 -11.5479 75.5427
RightShoulder  5.07876 9.75018 24.0041
RightArm  -3.66172 15.6274 58.1505
RightForeArm  11.3013 25.1082 -14.0398
RightHand  -7.83252 8.57369 -59.0513
LeftUpLeg  -33.4368 2.05786 7.93342
LeftLeg  93.8052 -14.5268 9.10353
LeftFoot  -18.2186 -0.976647 -20.4172
LeftToes  1.39127e-010 -3.60802e-011 -7.31315e-011
203
root  -1.09752 19.3474 -20.7504 50.1669 4.95613 2.0853
RightUpLeg  -59.5007 5.44602 19.0132
RightLeg  114.851 18.1587 -5.08395
RightFoot  6.86216 0.583141 -3.48121
RightToes  5.82077e-011 -3.18055e-015 -2.98177e-016
Spine  45.2523 -0.519633 2.65102
Spine1  -10.877 0.251691 5.86074
HEad  -28.914 -5.07126 0.599487
LeftShoulder1  -3.88251e-019 9.70628e-020 -3.87848e-018
LeftArm  -4.60006 -12.9236 -67.0746
LeftForeArm  12.8973 -10.474 -6.07217
LeftHand  -12.7541 -11.6014 76.2197
RightShoulder  4.82316 9.71734 22.6063
RightArm  -5.61551 19.9632 61.7059
RightForeArm  9.13651 18.8394 -11.4851
RightHand  -7.60388 7.69723 -60.7079
LeftUpLeg  -36.8042 0.632837 5.2767
LeftLeg  99.6067 -15.7739 10.7566
LeftFoot  -20.2776 -1.34134 -20.332
LeftToes  1.39127e-010 -3.60802e-011 -7.31315e-011
204
root  -1.66547 19.6005 -20.4074 47.6081 4.3408 5.85191
RightUpLeg  -55.704 2.49728 17.9844
RightLeg  112.474 19.4879 -8.38878
RightFoot  6.76542 0.625422 -3.73649
RightToes  5.82077e-011 -3.18055e-015 -2.98177e-016
Spine  47.7496 -0.662911 -0.013204
Spine1  -9.10303 -1.14497 6.12772
HEad  -29.7641 -4.28706 2.95972
LeftShoulder1  -3.88251e-019 9.70628e-020 -3.87848e-018
LeftArm  -3.44202 -14.4841 -66.2363
LeftForeArm  12.5005 -10.1004 -6.51881
LeftHand  -12.5519 -11.3422 76.1989
RightShoulder  4.556 9.79497 20.935
RightArm  -5.01214 20.6678 63.1717
RightForeArm  5.60602 16.8386 -11.2018
RightHand  -8.39388 7.8706 -65.0868
LeftUpLeg  -39.7571 -0.608296 3.42066
LeftLeg  105.803 -17.1248 11.2943
LeftFoot  -24.6352 -1.78668 -17.0454
LeftToes  1.39127e-010 -3.60802e-011 -7.31315e-011
205
root  -2.22245 19.7902 -20.0682 45.8574 3.80619 8.83
RightUpLeg  -52.4344 0.202062 17.2946
RightLeg  109.811 20.5066 -11.6596
RightFoot  6.03304 0.705406 -4.33893
RightToes  5.82077e-011 -3.18055e-015 -2.98177e-016
Spine  48.2827 -0.199995 -2.80186
Spine1  -6.18702 -2.2552 6.8272
HEad  -30.2769 -2.73887 4.73255
LeftShoulder1  -3.88251e-019 9.70628e-020 -3.87848e-018
LeftArm  -2.99176 -15.995 -65.4974
LeftForeArm  12.6853 -9.47626 -6.51398
LeftHand  -12.1164 -11.2496 74.5512
RightShoulder  4.23652 9.93226 18.8648
RightArm  -4.2717 19.8093 63.159
RightForeArm  2.6756 17.9265 -11.0141
RightHand  -9.46862 8.62035 -68.6213
LeftUpLeg  -44.4975 -1.0573 2.18351
LeftLeg  112.348 -18.225 10.7157
LeftFoot  -30.3533 -1.99948 -12.5605
LeftToes  1.39127e-010 -3.60802e-011 -7.31315e-011
206
root  -2.74297 19.9329 -19.7883 43.7259 3.23753 12.0067
RightUpLeg  -48.7457 -2.11825 15.7792
RightLeg  107.769 20.974 -13.8438
RightFoot  4.43589 0.75366 -5.00923
RightToes  5.82077e-011 -3.18055e-015 -2.98177e-016
Spine  48.8362 0.4934 -5.70587
Spine1  -3.13204 -3.26433 7.24566
HEad  -30.4891 -1.47377 6.69693
LeftShoulder1  -3.88251e-019 9.70628e-020 -3.87848e-018
LeftArm  -2.4716 -18.3541 -65.2287
LeftForeArm  14.2398 -7.42327 -6.8253
LeftHand  -11.7134 -11.2534 72.6884
RightShoulder  3.83406 10.136 16.2268
RightArm  -3.42366 19.3157 62.9533
RightForeArm  -0.883562 18.5324 -10.8067
RightHand  -10.1178 9.13263 -70.2628
LeftUpLeg  -50.2578 -1.6753 0.587372
LeftLeg  118.824 -18.6294 9.07906
LeftFoot  -35.3267 -2.03336 -9.79613
LeftToes  1.39127e-010 -3.60802e-011 -7.31315e-011
207
root  -3.13792 20.045 -19.5503 41.1035 2.7124 14.6802
RightUpLeg  -44.6352 -3.92471 13.7847
RightLeg  106.486 20.9132 -14.5151
RightFoot  2.95822 0.799779 -5.75502
RightToes  5.82077e-011 -3.18055e-015 -2.98177e-016
Spine  49.5868 0.906823 -7.10399
Spine1  -0.316055 -3.55169 5.67943
HEad  -30.4391 -1.54158 9.31678
LeftShoulder1  -3.88251e-019 9.70628e-020 -3.87848e-018
LeftArm  -1.20571 -21.3095 -65.8302
LeftForeArm  16.8204 -4.9709 -7.5998
LeftHand  -10.7177 -10.5996 70.0513
RightShoulder  3.43343 10.3745 13.5772
RightArm  -4.55006 19.0071 62.4647
RightForeArm  -3.0847 17.9127 -10.6914
RightHand  -10.4019 9.23128 -71.3975
LeftUpLeg  -56.6455 -1.9185 -1.27989
LeftLeg  124.333 -18.5795 7.42493
LeftFoot  -38.5702 -1.94718 -8.13225
LeftToes  1.39127e-010 -3.60802e-011 -7.31315e-011
208
root  -3.39152 20.1996 -19.3105 38.0931 2.56708 17.0038
RightUpLeg  -40.1032 -5.43323 11.2967
RightLeg  105.639 20.4036 -13.7812
RightFoot  2.15205 0.834431 -6.29253
RightToes  5.82077e-011 -3.18055e-015 -2.98177e-016
Spine  50.3604 0.969641 -6.84387
Spine1  2.39297 -3.1022 3.03902
HEad  -30.107 -3.10151 11.7517
LeftShoulder1  -3.88251e-019 9.70628e-020 -3.87848e-018
LeftArm  0.107782 -23.0469 -66.7718
LeftForeArm  19.4422 -6.15028 -7.77501
LeftHand  -8.56217 -9.63886 61.4037
RightShoulder  3.17457 10.4812 11.9444
RightArm  -7.64769 18.1473 60.7314
RightForeArm  -2.96459 17.7279 -10.9928
RightHand  -10.5461 9.15415 -72.4394
LeftUpLeg  -63.6054 -2.10329 -4.12652
LeftLeg  127.364 -19.6609 8.0321
LeftFoot  -39.596 -1.59373 -6.29074
LeftToes  1.39127e-010 -3.60802e-011 -7.31315e-011
